<svg width="455" height="455" viewBox="0 0 455 455" fill="none" xmlns="http://www.w3.org/2000/svg">
<path d="M227.506 26.1096C202.581 26.1096 176.731 37.8527 149.955 61.5374C123.186 85.2156 96.9236 119.61 71.6912 161.68C46.5869 203.536 29.5219 243.2 22.5388 277.819C15.547 312.48 19.0027 340.087 32.0681 360.351C45.7458 381.564 69.9432 398.802 103.897 410.767C137.762 422.701 180.012 428.89 227.499 428.891H227.505C274.991 428.89 317.242 422.701 351.106 410.767C385.06 398.802 409.258 381.564 422.935 360.351C436.001 340.087 439.456 312.48 432.465 277.819C425.482 243.2 408.416 203.536 383.311 161.68C358.08 119.612 331.819 85.217 305.052 61.5384C278.277 37.8534 252.43 26.1098 227.506 26.1096Z" stroke="#7A55FF" stroke-width="38"/>
</svg>
